<svg width="15" height="16" viewBox="0 0 15 16" fill="none" xmlns="http://www.w3.org/2000/svg">
<path d="M4.79395 4.98938L4.92525 4.96964L4.98243 4.8498L6.64973 1.35494C6.99928 0.62225 8.00069 0.622244 8.35026 1.35494L10.0175 4.8498L10.0747 4.96964L10.206 4.98938L13.9343 5.54982C14.7045 5.66558 15.0351 6.66255 14.4588 7.2436L14.4588 7.24362L11.7611 9.96399L11.671 10.0548L11.6919 10.1809L12.3288 14.0221L12.5754 13.9813L12.3288 14.0221C12.4661 14.8503 11.6341 15.4399 10.954 15.0701C10.954 15.0701 10.954 15.0701 10.954 15.0701L7.61944 13.2565L7.5 13.1915L7.38055 13.2565L4.04595 15.0701C4.04595 15.0701 4.04594 15.0701 4.04593 15.0701C3.36588 15.4399 2.53387 14.8503 2.67118 14.0221L2.42454 13.9813L2.67118 14.0221L3.30803 10.1809L3.32894 10.0548L3.2389 9.96399L0.541143 7.24362C-0.0350771 6.66256 0.295573 5.66558 1.06574 5.54982L4.79395 4.98938Z" stroke="black" stroke-width="0.5"/>
</svg>
