<svg width="15" height="16" viewBox="0 0 15 16" fill="none" xmlns="http://www.w3.org/2000/svg">
<path d="M6.42399 1.24726C6.86409 0.324768 8.13568 0.324771 8.57579 1.24726L10.2431 4.74213L13.9713 5.30257C14.9555 5.45048 15.3484 6.70156 14.6362 7.41963L11.9385 10.14L12.5753 13.9812C12.7434 14.9951 11.7147 15.7684 10.8345 15.2897L7.49989 13.4761L4.16528 15.2897C3.28507 15.7684 2.25633 14.9951 2.42444 13.9812L3.06129 10.14L0.363525 7.41963C-0.348565 6.70156 0.0443807 5.45048 1.02848 5.30257L4.75669 4.74213L6.42399 1.24726ZM7.49989 2.49771L8.30257 5.83522C9.88721 7.00766 7.42539 10.2467 6.94157 9.86643L7.6164 8.20977L6.42399 8.84189C6.70675 9.12704 8.57579 10.14 4.5661 10.2415L10.8345 8.20977L6.94157 12.0269C7.2911 11.8368 7.56855 5.32575 8.30257 8.20977L7.49989 7.60303C7.43314 7.20039 10.5517 5.8602 10.8345 5.57505L13.1542 6.7475L9.87137 6.25402C9.4806 6.19528 4.93145 12.3932 4.75669 12.0269L7.49989 2.49771Z" fill="#F7E600"/>
</svg>
