<svg width="25" height="25" viewBox="0 0 25 25" fill="none" xmlns="http://www.w3.org/2000/svg">
<path d="M14.3047 9.35221V10.8282C14.3047 11.1327 14.0506 11.3817 13.74 11.3817H11.1049V13.9648C11.1049 14.2692 10.8509 14.5183 10.5403 14.5183H9.03453C8.72397 14.5183 8.46987 14.2692 8.46987 13.9648V11.3817H5.8348C5.52424 11.3817 5.27014 11.1327 5.27014 10.8282V9.35221C5.27014 9.04778 5.52424 8.7987 5.8348 8.7987H8.46987V6.21567C8.46987 5.91124 8.72397 5.66216 9.03453 5.66216H10.5403C10.8509 5.66216 11.1049 5.91124 11.1049 6.21567V8.7987H13.74C14.0506 8.7987 14.3047 9.04778 14.3047 9.35221ZM23.7627 22.4842L22.4311 23.7895C21.9887 24.2231 21.2735 24.2231 20.8359 23.7895L16.1398 19.1908C15.9281 18.9832 15.8104 18.7019 15.8104 18.4067V17.6548C14.1494 18.9279 12.0602 19.6843 9.78741 19.6843C4.38081 19.6843 0 15.3901 0 10.0902C0 4.79039 4.38081 0.496094 9.78741 0.496094C15.194 0.496094 19.5748 4.79039 19.5748 10.0902C19.5748 12.3181 18.8031 14.3661 17.5044 15.9943H18.2714C18.5726 15.9943 18.8596 16.1096 19.0713 16.3172L23.7627 20.9159C24.2003 21.3495 24.2003 22.0506 23.7627 22.4842ZM16.1869 10.0902C16.1869 6.62157 13.3259 3.81714 9.78741 3.81714C6.24889 3.81714 3.38795 6.62157 3.38795 10.0902C3.38795 13.5589 6.24889 16.3633 9.78741 16.3633C13.3259 16.3633 16.1869 13.5589 16.1869 10.0902Z" fill="black"/>
</svg>
