<svg width="56" height="56" viewBox="0 0 56 56" fill="none" xmlns="http://www.w3.org/2000/svg">
<path d="M39.5498 35H39.7831" stroke="black" stroke-width="3" stroke-linecap="round" stroke-linejoin="round"/>
<path d="M49 23.3333V46.6667C49 47.2855 48.7542 47.879 48.3166 48.3166C47.879 48.7542 47.2855 49 46.6667 49H9.33333C8.71449 49 8.121 48.7542 7.68342 48.3166C7.24583 47.879 7 47.2855 7 46.6667V23.3333C7 22.7145 7.24583 22.121 7.68342 21.6834C8.121 21.2458 8.71449 21 9.33333 21H46.6667C47.2855 21 47.879 21.2458 48.3166 21.6834C48.7542 22.121 49 22.7145 49 23.3333ZM40.1567 21L44.3333 15.0267L32.8767 7L23.0533 21H40.1567ZM21.21 7L11.3867 21H23.0533L29.0267 12.4833L21.21 7Z" stroke="black" stroke-width="2" stroke-linecap="round" stroke-linejoin="round"/>
</svg>
