<svg width="56" height="56" viewBox="0 0 56 56" fill="none" xmlns="http://www.w3.org/2000/svg">
<path d="M37.3335 24.5L32.8768 30.3333L30.3335 27.4167" stroke="black" stroke-width="2" stroke-linecap="round" stroke-linejoin="round"/>
<path d="M14 42V46.6667C14 47.2855 14.2458 47.879 14.6834 48.3166C15.121 48.7542 15.7145 49 16.3333 49H44.3333C44.9522 49 45.5457 48.7542 45.9833 48.3166C46.4208 47.879 46.6667 47.2855 46.6667 46.6667V9.33333C46.6667 8.71449 46.4208 8.121 45.9833 7.68342C45.5457 7.24583 44.9522 7 44.3333 7H21" stroke="black" stroke-width="2" stroke-linecap="round" stroke-linejoin="round"/>
<path d="M18.6668 16.3335H12.8335C11.9052 16.3335 11.015 16.7022 10.3586 17.3586C9.70224 18.015 9.3335 18.9052 9.3335 19.8335C9.3335 20.7618 9.70224 21.652 10.3586 22.3084C11.015 22.9647 11.9052 23.3335 12.8335 23.3335H15.1668C16.0951 23.3335 16.9853 23.7022 17.6417 24.3586C18.2981 25.015 18.6668 25.9052 18.6668 26.8335C18.6668 27.7618 18.2981 28.652 17.6417 29.3084C16.9853 29.9647 16.0951 30.3335 15.1668 30.3335H9.3335" stroke="black" stroke-width="2" stroke-linecap="round" stroke-linejoin="round"/>
<path d="M14 32.6667V30.3333M23.3333 39.6667H37.3333H23.3333ZM14 16.3333V14V16.3333Z" stroke="black" stroke-width="2" stroke-linecap="round" stroke-linejoin="round"/>
</svg>
