<svg width="55" height="55" viewBox="0 0 55 55" fill="none" xmlns="http://www.w3.org/2000/svg">
<path d="M32.0832 20.625H26.354C25.4423 20.625 24.568 20.9872 23.9233 21.6318C23.2787 22.2765 22.9165 23.1508 22.9165 24.0625V24.0625C22.9165 24.9742 23.2787 25.8485 23.9233 26.4932C24.568 27.1378 25.4423 27.5 26.354 27.5H28.6457C29.5574 27.5 30.4317 27.8622 31.0764 28.5068C31.721 29.1515 32.0832 30.0258 32.0832 30.9375V30.9375C32.0832 31.8492 31.721 32.7235 31.0764 33.3682C30.4317 34.0128 29.5574 34.375 28.6457 34.375H22.9165" stroke="black" stroke-width="2" stroke-linecap="round" stroke-linejoin="round"/>
<path d="M27.5 36.6668V34.3752M48.125 43.5418H6.875V11.4585H48.125V43.5418ZM48.125 11.4585H38.9583C38.9583 13.8896 39.9241 16.2212 41.6432 17.9403C43.3623 19.6594 45.6939 20.6252 48.125 20.6252V11.4585ZM6.875 20.6252C9.30615 20.6252 11.6377 19.6594 13.3568 17.9403C15.0759 16.2212 16.0417 13.8896 16.0417 11.4585H6.875V20.6252ZM48.125 34.3752C45.6939 34.3752 43.3623 35.3409 41.6432 37.06C39.9241 38.7791 38.9583 41.1107 38.9583 43.5418H48.125V34.3752ZM6.875 43.5418H16.0417C16.0417 41.1107 15.0759 38.7791 13.3568 37.06C11.6377 35.3409 9.30615 34.3752 6.875 34.3752V34.3752V43.5418ZM27.5 20.6252V18.3335V20.6252Z" stroke="black" stroke-width="2" stroke-linecap="round" stroke-linejoin="round"/>
</svg>
